<?xml version="1.0" standalone="no"?>
<!DOCTYPE svg PUBLIC "-//W3C//DTD SVG 20010904//EN"
 "http://www.w3.org/TR/2001/REC-SVG-20010904/DTD/svg10.dtd">
<svg version="1.0" xmlns="http://www.w3.org/2000/svg"
 width="5906.000000pt" height="5906.000000pt" viewBox="0 0 5906.000000 5906.000000"
 preserveAspectRatio="xMidYMid meet">

<g transform="translate(0.000000,5906.000000) scale(0.100000,-0.100000)"
fill="#000000" stroke="none">
<path d="M4750 47405 l0 -8065 5525 0 c3039 0 5525 -3 5525 -7 0 -3 -20 -40
-44 -82 -248 -432 -550 -1037 -768 -1541 -668 -1546 -1096 -3233 -1238 -4885
-6 -71 -13 -145 -16 -162 l-5 -33 -4489 0 -4490 0 0 -13520 0 -13520 24780 0
24780 0 0 13520 0 13520 -4489 0 -4488 0 -7 103 c-12 179 -45 483 -82 762
-262 1984 -889 3878 -1867 5640 -55 99 -104 186 -109 193 -8 9 1096 12 5516
12 l5526 0 0 8065 0 8065 -24780 0 -24780 0 0 -8065z m39600 4460 c684 -92
1279 -353 1795 -787 123 -104 354 -341 452 -465 413 -520 650 -1092 735 -1773
17 -138 17 -581 0 -725 -84 -704 -348 -1321 -794 -1850 -104 -123 -341 -354
-465 -452 -520 -413 -1092 -650 -1773 -735 -138 -17 -581 -17 -725 0 -674 80
-1257 321 -1778 735 -124 98 -361 329 -465 452 -446 530 -710 1145 -794 1850
-17 144 -17 587 0 725 74 596 268 1115 589 1578 207 298 487 586 783 806 476
353 1084 589 1665 646 61 5 126 12 145 14 77 9 521 -4 630 -19z m-14310 -7655
c862 -37 1646 -141 2450 -326 2663 -613 5076 -2047 6891 -4094 1001 -1130
1794 -2413 2365 -3828 396 -981 686 -2082 829 -3147 120 -895 147 -1877 75
-2795 -151 -1923 -734 -3813 -1694 -5488 -463 -808 -976 -1520 -1624 -2252
-177 -200 -772 -797 -972 -977 -711 -635 -1422 -1155 -2205 -1610 -767 -447
-1604 -826 -2445 -1107 -1171 -391 -2334 -607 -3595 -667 -277 -13 -1144 -7
-1385 10 -279 20 -611 51 -815 77 -2433 306 -4698 1263 -6608 2791 -749 600
-1482 1336 -2078 2088 -788 994 -1431 2101 -1901 3270 -902 2246 -1168 4695
-768 7080 397 2372 1428 4575 2995 6400 420 489 923 993 1415 1415 2132 1830
4807 2931 7615 3135 468 34 1022 43 1455 25z"/>
</g>
</svg>
